<svg width="32" height="32" viewBox="0 0 25 33" fill="none" xmlns="http://www.w3.org/2000/svg"><path d="M12.2686 0.40332C13.8777 0.480786 15.2002 1.82202 15.2002 3.46582C15.2001 4.24906 14.9008 4.97388 14.4102 5.51562C14.3161 5.61944 14.2019 5.70377 14.0752 5.76367C13.9487 5.82343 13.8116 5.85738 13.6719 5.86426C13.5319 5.87113 13.3917 5.85092 13.2598 5.80371C13.1281 5.75657 13.007 5.68373 12.9033 5.58984C12.7995 5.49575 12.7152 5.38154 12.6553 5.25488C12.5954 5.12833 12.5606 4.99138 12.5537 4.85156C12.5468 4.71162 12.568 4.57137 12.6152 4.43945C12.6625 4.30755 12.735 4.18583 12.8291 4.08203C12.9788 3.91662 13.0663 3.70798 13.0664 3.46582C13.0664 2.87682 12.5793 2.43337 11.9453 2.54883C11.6058 2.61038 11.2929 2.91612 11.2227 3.25195C11.1513 3.59585 11.2471 3.87239 11.4365 4.08203C11.5753 4.23513 11.6674 4.42585 11.7002 4.62988C11.7329 4.83375 11.7058 5.04271 11.6221 5.23145C11.5382 5.42033 11.4009 5.58082 11.2275 5.69336C11.0545 5.80566 10.8528 5.86436 10.6465 5.86426V5.86523H7.86621V6.79883C7.86621 6.95449 7.97721 7.06528 8.13281 7.06543H16.1328C16.2886 7.06543 16.3994 6.9546 16.3994 6.79883V4.79883C16.3994 4.5161 16.5121 4.24491 16.7119 4.04492C16.9119 3.8449 17.1839 3.73245 17.4668 3.73242H20.1328C22.1867 3.73242 23.8662 5.4119 23.8662 7.46582V28.1318C23.8662 30.1858 22.1867 31.8652 20.1328 31.8652H4.13281C2.07904 31.8651 0.399414 30.1857 0.399414 28.1318V7.46582C0.399414 5.41363 2.07638 3.73526 4.12793 3.73242H4.13281C4.27233 3.73115 4.41055 3.75754 4.54004 3.80957C4.67117 3.86227 4.79096 3.93985 4.8916 4.03906C4.99218 4.13823 5.0724 4.25643 5.12695 4.38672C5.1815 4.5171 5.20898 4.65749 5.20898 4.79883C5.20898 4.94018 5.18151 5.08054 5.12695 5.21094C5.0724 5.34127 4.99221 5.4594 4.8916 5.55859C4.79094 5.65784 4.6712 5.73636 4.54004 5.78906C4.41063 5.84101 4.27222 5.86553 4.13281 5.86426V5.86523C3.24156 5.86541 2.5332 6.57452 2.5332 7.46582V28.1318C2.5332 29.0231 3.24156 29.7322 4.13281 29.7324H20.1328C21.0242 29.7324 21.7334 29.0232 21.7334 28.1318V7.46582C21.7334 6.57441 21.0242 5.86523 20.1328 5.86523H18.5332V6.79883C18.5332 8.11639 17.4504 9.19922 16.1328 9.19922H8.13281C6.8154 9.19904 5.7334 8.11628 5.7334 6.79883V4.79883C5.73343 4.51596 5.84588 4.24494 6.0459 4.04492C6.24592 3.84492 6.51694 3.73245 6.7998 3.73242H9.08789C9.05801 3.4377 9.06881 3.13003 9.13379 2.81738C9.38537 1.60922 10.3528 0.670815 11.5645 0.451172C11.8014 0.408042 12.0375 0.392223 12.2686 0.40332ZM17.4814 13.0674C17.6265 13.087 17.7665 13.1363 17.8926 13.2129C18.0607 13.3151 18.1982 13.4617 18.2881 13.6367C18.378 13.8118 18.4172 14.0088 18.4023 14.2051C18.3876 14.3992 18.3191 14.5848 18.2061 14.7432L18.207 14.7441L12.1406 23.4111C12.0586 23.5281 11.9531 23.6274 11.832 23.7031C11.711 23.7787 11.5764 23.83 11.4355 23.8525C11.2946 23.8751 11.1503 23.8691 11.0117 23.835C10.9078 23.8093 10.8082 23.7679 10.7168 23.7129L10.6279 23.6533L6.16211 20.3203V20.3193C6.04942 20.2397 5.95227 20.1398 5.87793 20.0234C5.8005 19.9022 5.74924 19.7659 5.72559 19.624C5.70196 19.4822 5.70731 19.337 5.74121 19.1973C5.77513 19.0576 5.83686 18.9258 5.92285 18.8105C6.00884 18.6954 6.11698 18.5986 6.24121 18.5264C6.36558 18.4541 6.50372 18.4083 6.64648 18.3906C6.78918 18.373 6.93408 18.3841 7.07227 18.4238C7.21045 18.4636 7.33966 18.5303 7.45117 18.6211H7.4502L11.0215 21.2861L16.459 13.5205C16.5562 13.379 16.6862 13.2632 16.8379 13.1826C16.991 13.1013 17.1616 13.0581 17.335 13.0576L17.4814 13.0674Z" fill="url(#paint0_linear_2305_14084)" stroke="url(#paint1_linear_2305_14084)" stroke-width="0.8"></path><defs><linearGradient id="paint0_linear_2305_14084" x1="12.1331" y1="0.799805" x2="12.1331" y2="31.4656" gradientUnits="userSpaceOnUse"><stop stop-color="#9DD6E9"></stop><stop offset="0.418269" stop-color="#9EBFF3"></stop><stop offset="0.75" stop-color="#81F6FD"></stop><stop offset="1" stop-color="#94D5EA"></stop></linearGradient><linearGradient id="paint1_linear_2305_14084" x1="12.1331" y1="0.799805" x2="12.1331" y2="31.4656" gradientUnits="userSpaceOnUse"><stop stop-color="#9DD6E9"></stop><stop offset="0.418269" stop-color="#9EBFF3"></stop><stop offset="0.75" stop-color="#81F6FD"></stop><stop offset="1" stop-color="#94D5EA"></stop></linearGradient></defs></svg>