<svg width="32" height="32" viewBox="0 0 29 31" fill="none" xmlns="http://www.w3.org/2000/svg"><path d="M12.5938 0.399414C19.3208 0.399414 24.7879 5.86672 24.7881 12.5938V13.3838L27.4443 17.9668C27.857 18.4617 28.112 18.8651 28.2061 19.2061C28.2563 19.3883 28.2667 19.5769 28.21 19.7568C28.1519 19.9403 28.0365 20.074 27.9072 20.168C27.6738 20.3375 27.3557 20.4031 27.125 20.4453C26.9206 20.4827 26.754 20.5065 26.6123 20.54L26.4785 20.5781L25.4189 20.9307L25.0625 23.9102C24.8381 25.7812 23.2408 27.2002 21.3555 27.2002H19.1318V29.4668C19.1317 29.7496 19.0193 30.0207 18.8193 30.2207C18.6193 30.4206 18.3482 30.5332 18.0654 30.5332H5.39844C5.11566 30.5331 4.84449 30.4207 4.64453 30.2207C4.44457 30.0207 4.33213 29.7496 4.33203 29.4668V24.1328C4.33194 22.1073 3.51631 20.8286 2.52832 19.2559C1.541 17.6841 0.399504 15.8357 0.399414 13.0879V12.5938C0.399591 5.86682 5.86682 0.399591 12.5938 0.399414ZM12.5938 2.5332C7.02919 2.53338 2.53338 7.02919 2.5332 12.5938V13.0879C2.53329 15.2304 3.35518 16.5624 4.33496 18.1221C5.31444 19.6813 6.46573 21.4786 6.46582 24.1328V28.3994H16.999V26.1328C16.9991 25.85 17.1116 25.5789 17.3115 25.3789C17.5115 25.179 17.7826 25.0664 18.0654 25.0664H21.3555C22.171 25.0664 22.8471 24.4664 22.9443 23.6562L23.3809 20.0059C23.405 19.805 23.4853 19.6147 23.6133 19.458C23.7413 19.3013 23.9115 19.1849 24.1035 19.1211L25.3975 18.6895L22.7988 14.2061C22.7046 14.0434 22.6552 13.8588 22.6553 13.6709V12.5938C22.6551 7.02908 18.1585 2.5332 12.5938 2.5332ZM18.0557 7.72559C18.2616 7.72254 18.4642 7.77917 18.6387 7.88867C18.8131 7.99818 18.9523 8.15602 19.0391 8.34277C19.1258 8.52953 19.1567 8.73754 19.1279 8.94141C19.0994 9.14339 19.0119 9.33171 18.8789 9.48633L18.8799 9.4873L11.876 17.7842C11.7816 17.896 11.6653 17.9878 11.5342 18.0527C11.4032 18.1175 11.2602 18.1548 11.1143 18.1621C10.9681 18.1693 10.8215 18.1464 10.6846 18.0947C10.5477 18.0431 10.4233 17.9632 10.3184 17.8613L6.65527 14.3057V14.3047C6.55463 14.2086 6.47352 14.094 6.41699 13.9668C6.35969 13.8378 6.32835 13.6987 6.3252 13.5576C6.32209 13.4163 6.3468 13.2751 6.39844 13.1436C6.45008 13.0121 6.52765 12.8924 6.62598 12.791C6.72436 12.6896 6.84179 12.6083 6.97168 12.5527C7.10157 12.4971 7.24153 12.468 7.38281 12.4668C7.52403 12.4656 7.66418 12.4925 7.79492 12.5459C7.92402 12.5986 8.04137 12.6765 8.14062 12.7744L10.9844 15.5342L17.249 8.1123C17.3468 7.99405 17.4692 7.89783 17.6074 7.83105C17.7473 7.76353 17.9004 7.72786 18.0557 7.72559Z" fill="url(#paint0_linear_2305_14083)" stroke="url(#paint1_linear_2305_14083)" stroke-width="0.8"></path><defs><linearGradient id="paint0_linear_2305_14083" x1="14.324" y1="0.799805" x2="14.324" y2="30.1331" gradientUnits="userSpaceOnUse"><stop stop-color="#E3D164"></stop><stop offset="0.5" stop-color="#3C66CA"></stop><stop offset="1" stop-color="#F0DA5B"></stop></linearGradient><linearGradient id="paint1_linear_2305_14083" x1="14.324" y1="0.799805" x2="14.324" y2="30.1331" gradientUnits="userSpaceOnUse"><stop stop-color="#E3D164"></stop><stop offset="0.5" stop-color="#3C66CA"></stop><stop offset="1" stop-color="#F0DA5B"></stop></linearGradient></defs></svg>